<svg width="396" height="98" viewBox="0 0 396 98" fill="none" xmlns="http://www.w3.org/2000/svg">
<g clip-path="url(#clip0_453_5)">
<path d="M60.4005 6.665L32.0037 55.8497L6.60319 41.1847L60.4005 6.665ZM13.5343 87.8397L41.9311 38.655L67.3316 53.32L13.5343 87.8397Z" fill="#588157" stroke="#252422" stroke-width="2.5" stroke-linecap="round" stroke-linejoin="round"/>
<path d="M91.4 57.67V54.38L101.9 52.56V57.11C101.9 61.52 104.7 63.55 107.92 63.55C111.56 63.55 113.73 60.89 113.73 57.18V23.37H124.79V57.46C124.79 66.49 117.86 74.05 107.99 74.05C98.19 74.05 91.4 67.54 91.4 57.67ZM163.875 73H132.375V23.37H163.805V33.8H143.435V43.25H161.915V52.98H143.435V62.5H163.875V73ZM209.206 33.94H193.876V73H182.816V33.94H167.556V23.37H209.206V33.94ZM224.313 73H213.113V23.37H224.313V73ZM274.046 23.37L258.086 48.29L274.186 73H260.746L250.946 56.9L241.216 73H228.196L244.226 48.15L228.196 23.37H241.496L251.296 39.47L261.096 23.37H274.046Z" fill="#252422"/>
<rect x="290" y="21" width="95" height="53" rx="9" stroke="#252422" stroke-width="2"/>
<path d="M334.755 57.715L342.4 29.005H349.22L338.275 68H331.455L321.995 38.52L312.535 68H305.77L294.715 29.005H301.645L309.455 57.495L318.585 29.005H325.46L334.755 57.715ZM358.988 46.935H365.863C370.043 46.935 372.573 44.625 372.573 40.94C372.573 37.2 370.043 34.835 365.863 34.835H358.988V46.935ZM366.853 52.765H358.988V68H352.388V29.005H366.853C374.333 29.005 379.283 34.065 379.283 40.885C379.283 47.76 374.333 52.765 366.853 52.765Z" fill="#252422"/>
</g>
<defs>
<clipPath id="clip0_453_5">
<rect width="396" height="98" fill="white"/>
</clipPath>
</defs>
</svg>
