<svg width="150" height="150" viewBox="0 0 150 150" fill="none" xmlns="http://www.w3.org/2000/svg">
<g clip-path="url(#clip0_535_48)">
<rect width="150" height="150" fill="#DAD7CD"/>
<rect width="150" height="150" fill="white" fill-opacity="0.5"/>
<rect x="6" y="9" width="136.757" height="132.946" rx="10" fill="#252422"/>
<path d="M30.656 38L26.672 31.16H24.032V38H21.848V21.272H27.248C28.512 21.272 29.576 21.488 30.44 21.92C31.32 22.352 31.976 22.936 32.408 23.672C32.84 24.408 33.056 25.248 33.056 26.192C33.056 27.344 32.72 28.36 32.048 29.24C31.392 30.12 30.4 30.704 29.072 30.992L33.272 38H30.656ZM24.032 29.408H27.248C28.432 29.408 29.32 29.12 29.912 28.544C30.504 27.952 30.8 27.168 30.8 26.192C30.8 25.2 30.504 24.432 29.912 23.888C29.336 23.344 28.448 23.072 27.248 23.072H24.032V29.408ZM48.4496 30.92C48.4496 31.336 48.4256 31.776 48.3776 32.24H37.8656C37.9456 33.536 38.3856 34.552 39.1856 35.288C40.0016 36.008 40.9856 36.368 42.1376 36.368C43.0816 36.368 43.8656 36.152 44.4896 35.72C45.1296 35.272 45.5776 34.68 45.8336 33.944H48.1856C47.8336 35.208 47.1296 36.24 46.0736 37.04C45.0176 37.824 43.7056 38.216 42.1376 38.216C40.8896 38.216 39.7696 37.936 38.7776 37.376C37.8016 36.816 37.0336 36.024 36.4736 35C35.9136 33.96 35.6336 32.76 35.6336 31.4C35.6336 30.04 35.9056 28.848 36.4496 27.824C36.9936 26.8 37.7536 26.016 38.7296 25.472C39.7216 24.912 40.8576 24.632 42.1376 24.632C43.3856 24.632 44.4896 24.904 45.4496 25.448C46.4096 25.992 47.1456 26.744 47.6576 27.704C48.1856 28.648 48.4496 29.72 48.4496 30.92ZM46.1936 30.464C46.1936 29.632 46.0096 28.92 45.6416 28.328C45.2736 27.72 44.7696 27.264 44.1296 26.96C43.5056 26.64 42.8096 26.48 42.0416 26.48C40.9376 26.48 39.9936 26.832 39.2096 27.536C38.4416 28.24 38.0016 29.216 37.8896 30.464H46.1936ZM50.5164 31.376C50.5164 30.032 50.7884 28.856 51.3324 27.848C51.8764 26.824 52.6204 26.032 53.5644 25.472C54.5244 24.912 55.5884 24.632 56.7564 24.632C57.9084 24.632 58.9084 24.88 59.7564 25.376C60.6044 25.872 61.2364 26.496 61.6524 27.248V24.848H63.8604V38H61.6524V35.552C61.2204 36.32 60.5724 36.96 59.7084 37.472C58.8604 37.968 57.8684 38.216 56.7324 38.216C55.5644 38.216 54.5084 37.928 53.5644 37.352C52.6204 36.776 51.8764 35.968 51.3324 34.928C50.7884 33.888 50.5164 32.704 50.5164 31.376ZM61.6524 31.4C61.6524 30.408 61.4524 29.544 61.0524 28.808C60.6524 28.072 60.1084 27.512 59.4204 27.128C58.7484 26.728 58.0044 26.528 57.1884 26.528C56.3724 26.528 55.6284 26.72 54.9564 27.104C54.2844 27.488 53.7484 28.048 53.3484 28.784C52.9484 29.52 52.7484 30.384 52.7484 31.376C52.7484 32.384 52.9484 33.264 53.3484 34.016C53.7484 34.752 54.2844 35.32 54.9564 35.72C55.6284 36.104 56.3724 36.296 57.1884 36.296C58.0044 36.296 58.7484 36.104 59.4204 35.72C60.1084 35.32 60.6524 34.752 61.0524 34.016C61.4524 33.264 61.6524 32.392 61.6524 31.4ZM69.7351 20.24V38H67.5511V20.24H69.7351ZM75.6414 20.24V38H73.4574V20.24H75.6414ZM90.6916 24.848L82.7716 44.192H80.5156L83.1076 37.856L77.8036 24.848H80.2276L84.3556 35.504L88.4356 24.848H90.6916ZM27.152 68.168C26.048 68.168 25.056 67.976 24.176 67.592C23.312 67.192 22.632 66.648 22.136 65.96C21.64 65.256 21.384 64.448 21.368 63.536H23.696C23.776 64.32 24.096 64.984 24.656 65.528C25.232 66.056 26.064 66.32 27.152 66.32C28.192 66.32 29.008 66.064 29.6 65.552C30.208 65.024 30.512 64.352 30.512 63.536C30.512 62.896 30.336 62.376 29.984 61.976C29.632 61.576 29.192 61.272 28.664 61.064C28.136 60.856 27.424 60.632 26.528 60.392C25.424 60.104 24.536 59.816 23.864 59.528C23.208 59.24 22.64 58.792 22.16 58.184C21.696 57.56 21.464 56.728 21.464 55.688C21.464 54.776 21.696 53.968 22.16 53.264C22.624 52.56 23.272 52.016 24.104 51.632C24.952 51.248 25.92 51.056 27.008 51.056C28.576 51.056 29.856 51.448 30.848 52.232C31.856 53.016 32.424 54.056 32.552 55.352H30.152C30.072 54.712 29.736 54.152 29.144 53.672C28.552 53.176 27.768 52.928 26.792 52.928C25.88 52.928 25.136 53.168 24.56 53.648C23.984 54.112 23.696 54.768 23.696 55.616C23.696 56.224 23.864 56.72 24.2 57.104C24.552 57.488 24.976 57.784 25.472 57.992C25.984 58.184 26.696 58.408 27.608 58.664C28.712 58.968 29.6 59.272 30.272 59.576C30.944 59.864 31.52 60.32 32 60.944C32.48 61.552 32.72 62.384 32.72 63.44C32.72 64.256 32.504 65.024 32.072 65.744C31.64 66.464 31 67.048 30.152 67.496C29.304 67.944 28.304 68.168 27.152 68.168ZM37.0619 52.712C36.6459 52.712 36.2939 52.568 36.0059 52.28C35.7179 51.992 35.5739 51.64 35.5739 51.224C35.5739 50.808 35.7179 50.456 36.0059 50.168C36.2939 49.88 36.6459 49.736 37.0619 49.736C37.4619 49.736 37.7979 49.88 38.0699 50.168C38.3579 50.456 38.5019 50.808 38.5019 51.224C38.5019 51.64 38.3579 51.992 38.0699 52.28C37.7979 52.568 37.4619 52.712 37.0619 52.712ZM38.1179 54.848V68H35.9339V54.848H38.1179ZM57.6562 54.608C58.6802 54.608 59.5922 54.824 60.3922 55.256C61.1922 55.672 61.8242 56.304 62.2882 57.152C62.7522 58 62.9842 59.032 62.9842 60.248V68H60.8242V60.56C60.8242 59.248 60.4962 58.248 59.8402 57.56C59.2002 56.856 58.3282 56.504 57.2242 56.504C56.0882 56.504 55.1842 56.872 54.5122 57.608C53.8402 58.328 53.5042 59.376 53.5042 60.752V68H51.3442V60.56C51.3442 59.248 51.0162 58.248 50.3602 57.56C49.7202 56.856 48.8482 56.504 47.7442 56.504C46.6082 56.504 45.7042 56.872 45.0322 57.608C44.3602 58.328 44.0242 59.376 44.0242 60.752V68H41.8402V54.848H44.0242V56.744C44.4562 56.056 45.0322 55.528 45.7522 55.16C46.4882 54.792 47.2962 54.608 48.1762 54.608C49.2802 54.608 50.2562 54.856 51.1042 55.352C51.9522 55.848 52.5842 56.576 53.0002 57.536C53.3682 56.608 53.9762 55.888 54.8242 55.376C55.6722 54.864 56.6162 54.608 57.6562 54.608ZM68.7508 57.272C69.1828 56.52 69.8228 55.896 70.6708 55.4C71.5348 54.888 72.5348 54.632 73.6708 54.632C74.8388 54.632 75.8948 54.912 76.8387 55.472C77.7987 56.032 78.5508 56.824 79.0948 57.848C79.6388 58.856 79.9108 60.032 79.9108 61.376C79.9108 62.704 79.6388 63.888 79.0948 64.928C78.5508 65.968 77.7987 66.776 76.8387 67.352C75.8948 67.928 74.8388 68.216 73.6708 68.216C72.5508 68.216 71.5588 67.968 70.6948 67.472C69.8468 66.96 69.1988 66.328 68.7508 65.576V74.24H66.5668V54.848H68.7508V57.272ZM77.6788 61.376C77.6788 60.384 77.4788 59.52 77.0788 58.784C76.6788 58.048 76.1348 57.488 75.4468 57.104C74.7748 56.72 74.0308 56.528 73.2148 56.528C72.4148 56.528 71.6708 56.728 70.9828 57.128C70.3108 57.512 69.7668 58.08 69.3508 58.832C68.9508 59.568 68.7508 60.424 68.7508 61.4C68.7508 62.392 68.9508 63.264 69.3508 64.016C69.7668 64.752 70.3108 65.32 70.9828 65.72C71.6708 66.104 72.4148 66.296 73.2148 66.296C74.0308 66.296 74.7748 66.104 75.4468 65.72C76.1348 65.32 76.6788 64.752 77.0788 64.016C77.4788 63.264 77.6788 62.384 77.6788 61.376ZM84.9695 50.24V68H82.7855V50.24H84.9695ZM100.692 60.92C100.692 61.336 100.668 61.776 100.62 62.24H90.1078C90.1878 63.536 90.6278 64.552 91.4278 65.288C92.2438 66.008 93.2278 66.368 94.3798 66.368C95.3238 66.368 96.1078 66.152 96.7318 65.72C97.3718 65.272 97.8198 64.68 98.0758 63.944H100.428C100.076 65.208 99.3718 66.24 98.3158 67.04C97.2598 67.824 95.9478 68.216 94.3798 68.216C93.1318 68.216 92.0118 67.936 91.0198 67.376C90.0438 66.816 89.2758 66.024 88.7158 65C88.1558 63.96 87.8758 62.76 87.8758 61.4C87.8758 60.04 88.1478 58.848 88.6918 57.824C89.2358 56.8 89.9958 56.016 90.9718 55.472C91.9638 54.912 93.0998 54.632 94.3798 54.632C95.6278 54.632 96.7318 54.904 97.6918 55.448C98.6518 55.992 99.3878 56.744 99.8998 57.704C100.428 58.648 100.692 59.72 100.692 60.92ZM98.4358 60.464C98.4358 59.632 98.2518 58.92 97.8838 58.328C97.5158 57.72 97.0118 57.264 96.3718 56.96C95.7478 56.64 95.0518 56.48 94.2838 56.48C93.1798 56.48 92.2358 56.832 91.4518 57.536C90.6838 58.24 90.2438 59.216 90.1318 60.464H98.4358ZM32.456 81.152V84.44H25.592V87.992H30.728V91.184H25.592V98H21.488V81.152H32.456ZM47.237 91.088C47.237 91.472 47.213 91.872 47.165 92.288H37.877C37.941 93.12 38.205 93.76 38.669 94.208C39.149 94.64 39.733 94.856 40.421 94.856C41.445 94.856 42.157 94.424 42.557 93.56H46.925C46.701 94.44 46.293 95.232 45.701 95.936C45.125 96.64 44.397 97.192 43.517 97.592C42.637 97.992 41.653 98.192 40.565 98.192C39.253 98.192 38.085 97.912 37.061 97.352C36.037 96.792 35.237 95.992 34.661 94.952C34.085 93.912 33.797 92.696 33.797 91.304C33.797 89.912 34.077 88.696 34.637 87.656C35.213 86.616 36.013 85.816 37.037 85.256C38.061 84.696 39.237 84.416 40.565 84.416C41.861 84.416 43.013 84.688 44.021 85.232C45.029 85.776 45.813 86.552 46.373 87.56C46.949 88.568 47.237 89.744 47.237 91.088ZM43.037 90.008C43.037 89.304 42.797 88.744 42.317 88.328C41.837 87.912 41.237 87.704 40.517 87.704C39.829 87.704 39.245 87.904 38.765 88.304C38.301 88.704 38.013 89.272 37.901 90.008H43.037ZM48.5861 91.28C48.5861 89.904 48.8421 88.696 49.3541 87.656C49.8821 86.616 50.5941 85.816 51.4901 85.256C52.3861 84.696 53.3861 84.416 54.4901 84.416C55.4341 84.416 56.2581 84.608 56.9621 84.992C57.6821 85.376 58.2341 85.88 58.6181 86.504V84.608H62.7221V98H58.6181V96.104C58.2181 96.728 57.6581 97.232 56.9381 97.616C56.2341 98 55.4101 98.192 54.4661 98.192C53.3781 98.192 52.3861 97.912 51.4901 97.352C50.5941 96.776 49.8821 95.968 49.3541 94.928C48.8421 93.872 48.5861 92.656 48.5861 91.28ZM58.6181 91.304C58.6181 90.28 58.3301 89.472 57.7541 88.88C57.1941 88.288 56.5061 87.992 55.6901 87.992C54.8741 87.992 54.1781 88.288 53.6021 88.88C53.0421 89.456 52.7621 90.256 52.7621 91.28C52.7621 92.304 53.0421 93.12 53.6021 93.728C54.1781 94.32 54.8741 94.616 55.6901 94.616C56.5061 94.616 57.1941 94.32 57.7541 93.728C58.3301 93.136 58.6181 92.328 58.6181 91.304ZM73.1551 94.52V98H71.0671C69.5791 98 68.4191 97.64 67.5871 96.92C66.7551 96.184 66.3391 94.992 66.3391 93.344V88.016H64.7071V84.608H66.3391V81.344H70.4431V84.608H73.1311V88.016H70.4431V93.392C70.4431 93.792 70.5391 94.08 70.7311 94.256C70.9231 94.432 71.2431 94.52 71.6911 94.52H73.1551ZM88.6651 84.608V98H84.5611V96.176C84.1451 96.768 83.5771 97.248 82.8571 97.616C82.1531 97.968 81.3691 98.144 80.5051 98.144C79.4811 98.144 78.5771 97.92 77.7931 97.472C77.0091 97.008 76.4011 96.344 75.9691 95.48C75.5371 94.616 75.3211 93.6 75.3211 92.432V84.608H79.4011V91.88C79.4011 92.776 79.6331 93.472 80.0971 93.968C80.5611 94.464 81.1851 94.712 81.9691 94.712C82.7691 94.712 83.4011 94.464 83.8651 93.968C84.3291 93.472 84.5611 92.776 84.5611 91.88V84.608H88.6651ZM95.717 86.84C96.197 86.104 96.797 85.528 97.517 85.112C98.237 84.68 99.037 84.464 99.917 84.464V88.808H98.789C97.765 88.808 96.997 89.032 96.485 89.48C95.973 89.912 95.717 90.68 95.717 91.784V98H91.613V84.608H95.717V86.84ZM114.503 91.088C114.503 91.472 114.479 91.872 114.431 92.288H105.143C105.207 93.12 105.471 93.76 105.935 94.208C106.415 94.64 106.999 94.856 107.687 94.856C108.711 94.856 109.423 94.424 109.823 93.56H114.191C113.967 94.44 113.559 95.232 112.967 95.936C112.391 96.64 111.663 97.192 110.783 97.592C109.903 97.992 108.919 98.192 107.831 98.192C106.519 98.192 105.351 97.912 104.327 97.352C103.303 96.792 102.503 95.992 101.927 94.952C101.351 93.912 101.063 92.696 101.063 91.304C101.063 89.912 101.343 88.696 101.903 87.656C102.479 86.616 103.279 85.816 104.303 85.256C105.327 84.696 106.503 84.416 107.831 84.416C109.127 84.416 110.279 84.688 111.287 85.232C112.295 85.776 113.079 86.552 113.639 87.56C114.215 88.568 114.503 89.744 114.503 91.088ZM110.303 90.008C110.303 89.304 110.063 88.744 109.583 88.328C109.103 87.912 108.503 87.704 107.783 87.704C107.095 87.704 106.511 87.904 106.031 88.304C105.567 88.704 105.279 89.272 105.167 90.008H110.303ZM115.852 91.28C115.852 89.904 116.108 88.696 116.62 87.656C117.148 86.616 117.86 85.816 118.756 85.256C119.652 84.696 120.652 84.416 121.756 84.416C122.636 84.416 123.436 84.6 124.156 84.968C124.892 85.336 125.468 85.832 125.884 86.456V80.24H129.988V98H125.884V96.08C125.5 96.72 124.948 97.232 124.228 97.616C123.524 98 122.7 98.192 121.756 98.192C120.652 98.192 119.652 97.912 118.756 97.352C117.86 96.776 117.148 95.968 116.62 94.928C116.108 93.872 115.852 92.656 115.852 91.28ZM125.884 91.304C125.884 90.28 125.596 89.472 125.02 88.88C124.46 88.288 123.772 87.992 122.956 87.992C122.14 87.992 121.444 88.288 120.868 88.88C120.308 89.456 120.028 90.256 120.028 91.28C120.028 92.304 120.308 93.12 120.868 93.728C121.444 94.32 122.14 94.616 122.956 94.616C123.772 94.616 124.46 94.32 125.02 93.728C125.596 93.136 125.884 92.328 125.884 91.304ZM37.304 111.152L31.328 128H26.192L20.216 111.152H24.584L28.76 123.872L32.96 111.152H37.304ZM41.0833 113.216C40.3633 113.216 39.7713 113.008 39.3073 112.592C38.8593 112.16 38.6353 111.632 38.6353 111.008C38.6353 110.368 38.8593 109.84 39.3073 109.424C39.7713 108.992 40.3633 108.776 41.0833 108.776C41.7873 108.776 42.3633 108.992 42.8113 109.424C43.2753 109.84 43.5073 110.368 43.5073 111.008C43.5073 111.632 43.2753 112.16 42.8113 112.592C42.3633 113.008 41.7873 113.216 41.0833 113.216ZM43.1233 114.608V128H39.0193V114.608H43.1233ZM45.2814 121.28C45.2814 119.904 45.5374 118.696 46.0494 117.656C46.5774 116.616 47.2894 115.816 48.1854 115.256C49.0814 114.696 50.0814 114.416 51.1854 114.416C52.0654 114.416 52.8654 114.6 53.5854 114.968C54.3214 115.336 54.8974 115.832 55.3134 116.456V110.24H59.4174V128H55.3134V126.08C54.9294 126.72 54.3774 127.232 53.6574 127.616C52.9534 128 52.1294 128.192 51.1854 128.192C50.0814 128.192 49.0814 127.912 48.1854 127.352C47.2894 126.776 46.5774 125.968 46.0494 124.928C45.5374 123.872 45.2814 122.656 45.2814 121.28ZM55.3134 121.304C55.3134 120.28 55.0254 119.472 54.4494 118.88C53.8894 118.288 53.2014 117.992 52.3854 117.992C51.5694 117.992 50.8734 118.288 50.2974 118.88C49.7374 119.456 49.4574 120.256 49.4574 121.28C49.4574 122.304 49.7374 123.12 50.2974 123.728C50.8734 124.32 51.5694 124.616 52.3854 124.616C53.2014 124.616 53.8894 124.32 54.4494 123.728C55.0254 123.136 55.3134 122.328 55.3134 121.304ZM75.0104 121.088C75.0104 121.472 74.9864 121.872 74.9384 122.288H65.6504C65.7144 123.12 65.9784 123.76 66.4424 124.208C66.9224 124.64 67.5064 124.856 68.1944 124.856C69.2184 124.856 69.9304 124.424 70.3304 123.56H74.6984C74.4744 124.44 74.0664 125.232 73.4744 125.936C72.8984 126.64 72.1704 127.192 71.2904 127.592C70.4104 127.992 69.4264 128.192 68.3384 128.192C67.0264 128.192 65.8584 127.912 64.8344 127.352C63.8104 126.792 63.0104 125.992 62.4344 124.952C61.8584 123.912 61.5704 122.696 61.5704 121.304C61.5704 119.912 61.8504 118.696 62.4104 117.656C62.9864 116.616 63.7864 115.816 64.8104 115.256C65.8344 114.696 67.0104 114.416 68.3384 114.416C69.6344 114.416 70.7864 114.688 71.7944 115.232C72.8024 115.776 73.5864 116.552 74.1464 117.56C74.7224 118.568 75.0104 119.744 75.0104 121.088ZM70.8104 120.008C70.8104 119.304 70.5704 118.744 70.0904 118.328C69.6104 117.912 69.0104 117.704 68.2904 117.704C67.6024 117.704 67.0184 117.904 66.5384 118.304C66.0744 118.704 65.7864 119.272 65.6744 120.008H70.8104ZM83.2715 128.192C81.9595 128.192 80.7755 127.912 79.7195 127.352C78.6795 126.792 77.8555 125.992 77.2475 124.952C76.6555 123.912 76.3595 122.696 76.3595 121.304C76.3595 119.928 76.6635 118.72 77.2715 117.68C77.8795 116.624 78.7115 115.816 79.7675 115.256C80.8235 114.696 82.0075 114.416 83.3195 114.416C84.6315 114.416 85.8155 114.696 86.8715 115.256C87.9275 115.816 88.7595 116.624 89.3675 117.68C89.9755 118.72 90.2795 119.928 90.2795 121.304C90.2795 122.68 89.9675 123.896 89.3435 124.952C88.7355 125.992 87.8955 126.792 86.8235 127.352C85.7675 127.912 84.5835 128.192 83.2715 128.192ZM83.2715 124.64C84.0555 124.64 84.7195 124.352 85.2635 123.776C85.8235 123.2 86.1035 122.376 86.1035 121.304C86.1035 120.232 85.8315 119.408 85.2875 118.832C84.7595 118.256 84.1035 117.968 83.3195 117.968C82.5195 117.968 81.8555 118.256 81.3275 118.832C80.7995 119.392 80.5355 120.216 80.5355 121.304C80.5355 122.376 80.7915 123.2 81.3035 123.776C81.8315 124.352 82.4875 124.64 83.2715 124.64Z" fill="white"/>
<rect x="108" y="112" width="35.69" height="35.69" rx="17.845" fill="white"/>
<path d="M135.581 130.924L122.437 138.934C121.437 139.544 120.156 138.824 120.156 137.653L120.156 121.632C120.156 120.462 121.437 119.742 122.437 120.351L135.581 128.362C136.541 128.947 136.541 130.339 135.581 130.924Z" fill="#588157" stroke="#252422"/>
</g>
<defs>
<clipPath id="clip0_535_48">
<rect width="150" height="150" fill="white"/>
</clipPath>
</defs>
</svg>
