<svg width="150" height="150" viewBox="0 0 150 150" fill="none" xmlns="http://www.w3.org/2000/svg">
<rect x="11" y="10" width="128" height="131" rx="37" fill="#191919"/>
<rect x="33" y="75" width="87" height="24" fill="white"/>
<path d="M36.292 44V30.7H41.175C42.239 30.7 43.113 30.8837 43.797 31.251C44.4937 31.6057 45.013 32.0933 45.355 32.714C45.697 33.322 45.868 33.9997 45.868 34.747C45.868 35.5577 45.6527 36.2987 45.222 36.97C44.804 37.6413 44.1453 38.129 43.246 38.433L46.001 44H43.208L40.738 38.756H38.724V44H36.292ZM38.724 36.97H41.023C41.8337 36.97 42.429 36.7737 42.809 36.381C43.189 35.9883 43.379 35.469 43.379 34.823C43.379 34.1897 43.189 33.683 42.809 33.303C42.4417 32.923 41.84 32.733 41.004 32.733H38.724V36.97ZM52.0767 44.228C51.1267 44.228 50.2844 44.0253 49.5497 43.62C48.815 43.2147 48.2387 42.6447 47.8207 41.91C47.4027 41.1753 47.1937 40.3267 47.1937 39.364C47.1937 38.3887 47.3964 37.521 47.8017 36.761C48.2197 36.001 48.7897 35.412 49.5117 34.994C50.2464 34.5633 51.1077 34.348 52.0957 34.348C53.0204 34.348 53.8374 34.5507 54.5467 34.956C55.256 35.3613 55.807 35.9187 56.1997 36.628C56.605 37.3247 56.8077 38.1037 56.8077 38.965C56.8077 39.1043 56.8014 39.25 56.7887 39.402C56.7887 39.554 56.7824 39.7123 56.7697 39.877H49.6067C49.6574 40.6117 49.9107 41.188 50.3667 41.606C50.8354 42.024 51.399 42.233 52.0577 42.233C52.5517 42.233 52.9634 42.1253 53.2927 41.91C53.6347 41.682 53.888 41.3907 54.0527 41.036H56.5227C56.3454 41.6313 56.0477 42.176 55.6297 42.67C55.2244 43.1513 54.7177 43.5313 54.1097 43.81C53.5144 44.0887 52.8367 44.228 52.0767 44.228ZM52.0957 36.324C51.5004 36.324 50.9747 36.495 50.5187 36.837C50.0627 37.1663 49.7714 37.673 49.6447 38.357H54.3377C54.2997 37.7363 54.0717 37.2423 53.6537 36.875C53.2357 36.5077 52.7164 36.324 52.0957 36.324ZM62.1022 44.228C61.2915 44.228 60.6265 44.1013 60.1072 43.848C59.5878 43.582 59.2015 43.2337 58.9482 42.803C58.6948 42.3723 58.5682 41.8973 58.5682 41.378C58.5682 40.504 58.9102 39.7947 59.5942 39.25C60.2782 38.7053 61.3042 38.433 62.6722 38.433H65.0662V38.205C65.0662 37.559 64.8825 37.084 64.5152 36.78C64.1478 36.476 63.6918 36.324 63.1472 36.324C62.6532 36.324 62.2225 36.4443 61.8552 36.685C61.4878 36.913 61.2598 37.255 61.1712 37.711H58.7962C58.8595 37.027 59.0875 36.4317 59.4802 35.925C59.8855 35.4183 60.4048 35.032 61.0382 34.766C61.6715 34.4873 62.3808 34.348 63.1662 34.348C64.5088 34.348 65.5665 34.6837 66.3392 35.355C67.1118 36.0263 67.4982 36.9763 67.4982 38.205V44H65.4272L65.1992 42.48C64.9205 42.9867 64.5278 43.4047 64.0212 43.734C63.5272 44.0633 62.8875 44.228 62.1022 44.228ZM62.6532 42.328C63.3498 42.328 63.8882 42.1 64.2682 41.644C64.6608 41.188 64.9078 40.6243 65.0092 39.953H62.9382C62.2922 39.953 61.8298 40.0733 61.5512 40.314C61.2725 40.542 61.1332 40.827 61.1332 41.169C61.1332 41.5363 61.2725 41.8213 61.5512 42.024C61.8298 42.2267 62.1972 42.328 62.6532 42.328ZM69.819 44V30.32H72.251V44H69.819ZM74.736 44V30.32H77.168V44H74.736ZM80.831 48.18L83.016 43.373H82.446L78.779 34.576H81.42L84.061 41.207L86.816 34.576H89.4L83.415 48.18H80.831ZM40.833 69.228C39.8577 69.228 38.9963 69.0633 38.249 68.734C37.5017 68.392 36.9127 67.9107 36.482 67.29C36.0513 66.6567 35.8297 65.8903 35.817 64.991H38.382C38.4073 65.6117 38.629 66.1373 39.047 66.568C39.4777 66.986 40.0667 67.195 40.814 67.195C41.46 67.195 41.973 67.043 42.353 66.739C42.733 66.4223 42.923 66.0043 42.923 65.485C42.923 64.9403 42.752 64.516 42.41 64.212C42.0807 63.908 41.6373 63.661 41.08 63.471C40.5227 63.281 39.9273 63.0783 39.294 62.863C38.268 62.5083 37.4827 62.0523 36.938 61.495C36.406 60.9377 36.14 60.1967 36.14 59.272C36.1273 58.4867 36.311 57.8153 36.691 57.258C37.0837 56.688 37.6157 56.251 38.287 55.947C38.9583 55.6303 39.731 55.472 40.605 55.472C41.4917 55.472 42.2707 55.6303 42.942 55.947C43.626 56.2637 44.158 56.707 44.538 57.277C44.9307 57.847 45.1397 58.5247 45.165 59.31H42.562C42.5493 58.8413 42.3657 58.4297 42.011 58.075C41.669 57.7077 41.1877 57.524 40.567 57.524C40.035 57.5113 39.5853 57.6443 39.218 57.923C38.8633 58.189 38.686 58.5817 38.686 59.101C38.686 59.5443 38.8253 59.899 39.104 60.165C39.3827 60.4183 39.7627 60.6337 40.244 60.811C40.7253 60.9883 41.2763 61.1783 41.897 61.381C42.5557 61.609 43.1573 61.875 43.702 62.179C44.2467 62.483 44.6837 62.8883 45.013 63.395C45.3423 63.889 45.507 64.5287 45.507 65.314C45.507 66.0107 45.3297 66.6567 44.975 67.252C44.6203 67.8473 44.0947 68.3287 43.398 68.696C42.7013 69.0507 41.8463 69.228 40.833 69.228ZM48.8829 58.113C48.4396 58.113 48.0722 57.98 47.7809 57.714C47.5022 57.448 47.3629 57.1123 47.3629 56.707C47.3629 56.3017 47.5022 55.9723 47.7809 55.719C48.0722 55.453 48.4396 55.32 48.8829 55.32C49.3262 55.32 49.6872 55.453 49.9659 55.719C50.2572 55.9723 50.4029 56.3017 50.4029 56.707C50.4029 57.1123 50.2572 57.448 49.9659 57.714C49.6872 57.98 49.3262 58.113 48.8829 58.113ZM47.6669 69V59.576H50.0989V69H47.6669ZM52.6373 69V59.576H54.7843L54.9933 60.849C55.2973 60.393 55.6963 60.032 56.1903 59.766C56.697 59.4873 57.2797 59.348 57.9383 59.348C59.395 59.348 60.4273 59.9117 61.0353 61.039C61.3773 60.5197 61.8333 60.108 62.4033 59.804C62.986 59.5 63.6193 59.348 64.3033 59.348C65.532 59.348 66.4757 59.7153 67.1343 60.45C67.793 61.1847 68.1223 62.2613 68.1223 63.68V69H65.6903V63.908C65.6903 63.0973 65.532 62.4767 65.2153 62.046C64.9113 61.6153 64.4363 61.4 63.7903 61.4C63.1317 61.4 62.5997 61.6407 62.1943 62.122C61.8017 62.6033 61.6053 63.2747 61.6053 64.136V69H59.1733V63.908C59.1733 63.0973 59.015 62.4767 58.6983 62.046C58.3817 61.6153 57.894 61.4 57.2353 61.4C56.5893 61.4 56.0637 61.6407 55.6583 62.122C55.2657 62.6033 55.0693 63.2747 55.0693 64.136V69H52.6373ZM70.4313 73.18V59.576H72.5973L72.8633 60.925C73.1673 60.507 73.5663 60.1397 74.0603 59.823C74.567 59.5063 75.2193 59.348 76.0173 59.348C76.904 59.348 77.6956 59.5633 78.3923 59.994C79.089 60.4247 79.64 61.0137 80.0453 61.761C80.4506 62.5083 80.6533 63.357 80.6533 64.307C80.6533 65.257 80.4506 66.1057 80.0453 66.853C79.64 67.5877 79.089 68.1703 78.3923 68.601C77.6956 69.019 76.904 69.228 76.0173 69.228C75.308 69.228 74.6873 69.095 74.1553 68.829C73.6233 68.563 73.1926 68.1893 72.8633 67.708V73.18H70.4313ZM75.5043 67.1C76.277 67.1 76.9166 66.8403 77.4233 66.321C77.93 65.8017 78.1833 65.1303 78.1833 64.307C78.1833 63.4837 77.93 62.806 77.4233 62.274C76.9166 61.742 76.277 61.476 75.5043 61.476C74.719 61.476 74.073 61.742 73.5663 62.274C73.0723 62.7933 72.8253 63.4647 72.8253 64.288C72.8253 65.1113 73.0723 65.789 73.5663 66.321C74.073 66.8403 74.719 67.1 75.5043 67.1ZM82.8258 69V55.32H85.2578V69H82.8258ZM92.3218 69.228C91.3718 69.228 90.5295 69.0253 89.7948 68.62C89.0601 68.2147 88.4838 67.6447 88.0658 66.91C87.6478 66.1753 87.4388 65.3267 87.4388 64.364C87.4388 63.3887 87.6415 62.521 88.0468 61.761C88.4648 61.001 89.0348 60.412 89.7568 59.994C90.4915 59.5633 91.3528 59.348 92.3408 59.348C93.2655 59.348 94.0825 59.5507 94.7918 59.956C95.5011 60.3613 96.0521 60.9187 96.4448 61.628C96.8501 62.3247 97.0528 63.1037 97.0528 63.965C97.0528 64.1043 97.0465 64.25 97.0338 64.402C97.0338 64.554 97.0275 64.7123 97.0148 64.877H89.8518C89.9025 65.6117 90.1558 66.188 90.6118 66.606C91.0805 67.024 91.6441 67.233 92.3028 67.233C92.7968 67.233 93.2085 67.1253 93.5378 66.91C93.8798 66.682 94.1331 66.3907 94.2978 66.036H96.7678C96.5905 66.6313 96.2928 67.176 95.8748 67.67C95.4695 68.1513 94.9628 68.5313 94.3548 68.81C93.7595 69.0887 93.0818 69.228 92.3218 69.228ZM92.3408 61.324C91.7455 61.324 91.2198 61.495 90.7638 61.837C90.3078 62.1663 90.0165 62.673 89.8898 63.357H94.5828C94.5448 62.7363 94.3168 62.2423 93.8988 61.875C93.4808 61.5077 92.9615 61.324 92.3408 61.324ZM40.149 119L35.285 105.7H37.888L41.65 116.511L45.431 105.7H47.996L43.132 119H40.149ZM50.8312 108.113C50.3878 108.113 50.0205 107.98 49.7292 107.714C49.4505 107.448 49.3112 107.112 49.3112 106.707C49.3112 106.302 49.4505 105.972 49.7292 105.719C50.0205 105.453 50.3878 105.32 50.8312 105.32C51.2745 105.32 51.6355 105.453 51.9142 105.719C52.2055 105.972 52.3512 106.302 52.3512 106.707C52.3512 107.112 52.2055 107.448 51.9142 107.714C51.6355 107.98 51.2745 108.113 50.8312 108.113ZM49.6152 119V109.576H52.0472V119H49.6152ZM58.9176 119.228C58.0309 119.228 57.2393 119.013 56.5426 118.582C55.8459 118.151 55.2949 117.562 54.8896 116.815C54.4843 116.068 54.2816 115.219 54.2816 114.269C54.2816 113.319 54.4843 112.477 54.8896 111.742C55.2949 110.995 55.8459 110.412 56.5426 109.994C57.2393 109.563 58.0309 109.348 58.9176 109.348C59.6269 109.348 60.2476 109.481 60.7796 109.747C61.3116 110.013 61.7423 110.387 62.0716 110.868V105.32H64.5036V119H62.3376L62.0716 117.651C61.7676 118.069 61.3623 118.436 60.8556 118.753C60.3616 119.07 59.7156 119.228 58.9176 119.228ZM59.4306 117.1C60.2159 117.1 60.8556 116.84 61.3496 116.321C61.8563 115.789 62.1096 115.111 62.1096 114.288C62.1096 113.465 61.8563 112.793 61.3496 112.274C60.8556 111.742 60.2159 111.476 59.4306 111.476C58.6579 111.476 58.0183 111.736 57.5116 112.255C57.0049 112.774 56.7516 113.446 56.7516 114.269C56.7516 115.092 57.0049 115.77 57.5116 116.302C58.0183 116.834 58.6579 117.1 59.4306 117.1ZM71.5591 119.228C70.6091 119.228 69.7668 119.025 69.0321 118.62C68.2975 118.215 67.7211 117.645 67.3031 116.91C66.8851 116.175 66.6761 115.327 66.6761 114.364C66.6761 113.389 66.8788 112.521 67.2841 111.761C67.7021 111.001 68.2721 110.412 68.9941 109.994C69.7288 109.563 70.5901 109.348 71.5781 109.348C72.5028 109.348 73.3198 109.551 74.0291 109.956C74.7385 110.361 75.2895 110.919 75.6821 111.628C76.0875 112.325 76.2901 113.104 76.2901 113.965C76.2901 114.104 76.2838 114.25 76.2711 114.402C76.2711 114.554 76.2648 114.712 76.2521 114.877H69.0891C69.1398 115.612 69.3931 116.188 69.8491 116.606C70.3178 117.024 70.8815 117.233 71.5401 117.233C72.0341 117.233 72.4458 117.125 72.7751 116.91C73.1171 116.682 73.3705 116.391 73.5351 116.036H76.0051C75.8278 116.631 75.5301 117.176 75.1121 117.67C74.7068 118.151 74.2001 118.531 73.5921 118.81C72.9968 119.089 72.3191 119.228 71.5591 119.228ZM71.5781 111.324C70.9828 111.324 70.4571 111.495 70.0011 111.837C69.5451 112.166 69.2538 112.673 69.1271 113.357H73.8201C73.7821 112.736 73.5541 112.242 73.1361 111.875C72.7181 111.508 72.1988 111.324 71.5781 111.324ZM82.8576 119.228C81.9456 119.228 81.1223 119.019 80.3876 118.601C79.6656 118.183 79.0893 117.607 78.6586 116.872C78.2406 116.125 78.0316 115.263 78.0316 114.288C78.0316 113.313 78.2469 112.458 78.6776 111.723C79.1083 110.976 79.6846 110.393 80.4066 109.975C81.1413 109.557 81.9646 109.348 82.8766 109.348C83.7759 109.348 84.5866 109.557 85.3086 109.975C86.0433 110.393 86.6196 110.976 87.0376 111.723C87.4683 112.458 87.6836 113.313 87.6836 114.288C87.6836 115.263 87.4683 116.125 87.0376 116.872C86.6196 117.607 86.0433 118.183 85.3086 118.601C84.5739 119.019 83.7569 119.228 82.8576 119.228ZM82.8576 117.119C83.4909 117.119 84.0419 116.885 84.5106 116.416C84.9793 115.935 85.2136 115.225 85.2136 114.288C85.2136 113.351 84.9793 112.648 84.5106 112.179C84.0419 111.698 83.4973 111.457 82.8766 111.457C82.2306 111.457 81.6733 111.698 81.2046 112.179C80.7486 112.648 80.5206 113.351 80.5206 114.288C80.5206 115.225 80.7486 115.935 81.2046 116.416C81.6733 116.885 82.2243 117.119 82.8576 117.119ZM90.903 119.133C90.4597 119.133 90.0924 118.994 89.801 118.715C89.5224 118.436 89.383 118.101 89.383 117.708C89.383 117.303 89.5224 116.961 89.801 116.682C90.0924 116.403 90.4597 116.264 90.903 116.264C91.3464 116.264 91.7074 116.403 91.986 116.682C92.2774 116.961 92.423 117.303 92.423 117.708C92.423 118.101 92.2774 118.436 91.986 118.715C91.7074 118.994 91.3464 119.133 90.903 119.133Z" fill="white"/>
<path d="M36.292 94V80.7H44.88V82.657H38.724V86.381H43.702V88.3H38.724V94H36.292ZM50.7779 94.228C49.8279 94.228 48.9855 94.0253 48.2509 93.62C47.5162 93.2147 46.9399 92.6447 46.5219 91.91C46.1039 91.1753 45.8949 90.3267 45.8949 89.364C45.8949 88.3887 46.0975 87.521 46.5029 86.761C46.9209 86.001 47.4909 85.412 48.2129 84.994C48.9475 84.5633 49.8089 84.348 50.7969 84.348C51.7215 84.348 52.5385 84.5507 53.2479 84.956C53.9572 85.3613 54.5082 85.9187 54.9009 86.628C55.3062 87.3247 55.5089 88.1037 55.5089 88.965C55.5089 89.1043 55.5025 89.25 55.4899 89.402C55.4899 89.554 55.4835 89.7123 55.4709 89.877H48.3079C48.3585 90.6117 48.6119 91.188 49.0679 91.606C49.5365 92.024 50.1002 92.233 50.7589 92.233C51.2529 92.233 51.6645 92.1253 51.9939 91.91C52.3359 91.682 52.5892 91.3907 52.7539 91.036H55.2239C55.0465 91.6313 54.7489 92.176 54.3309 92.67C53.9255 93.1513 53.4189 93.5313 52.8109 93.81C52.2155 94.0887 51.5379 94.228 50.7779 94.228ZM50.7969 86.324C50.2015 86.324 49.6759 86.495 49.2199 86.837C48.7639 87.1663 48.4725 87.673 48.3459 88.357H53.0389C53.0009 87.7363 52.7729 87.2423 52.3549 86.875C51.9369 86.5077 51.4175 86.324 50.7969 86.324ZM60.8033 94.228C59.9927 94.228 59.3277 94.1013 58.8083 93.848C58.289 93.582 57.9027 93.2337 57.6493 92.803C57.396 92.3723 57.2693 91.8973 57.2693 91.378C57.2693 90.504 57.6113 89.7947 58.2953 89.25C58.9793 88.7053 60.0053 88.433 61.3733 88.433H63.7673V88.205C63.7673 87.559 63.5837 87.084 63.2163 86.78C62.849 86.476 62.393 86.324 61.8483 86.324C61.3543 86.324 60.9237 86.4443 60.5563 86.685C60.189 86.913 59.961 87.255 59.8723 87.711H57.4973C57.5607 87.027 57.7887 86.4317 58.1813 85.925C58.5867 85.4183 59.106 85.032 59.7393 84.766C60.3727 84.4873 61.082 84.348 61.8673 84.348C63.21 84.348 64.2677 84.6837 65.0403 85.355C65.813 86.0263 66.1993 86.9763 66.1993 88.205V94H64.1283L63.9003 92.48C63.6217 92.9867 63.229 93.4047 62.7223 93.734C62.2283 94.0633 61.5887 94.228 60.8033 94.228ZM61.3543 92.328C62.051 92.328 62.5893 92.1 62.9693 91.644C63.362 91.188 63.609 90.6243 63.7103 89.953H61.6393C60.9933 89.953 60.531 90.0733 60.2523 90.314C59.9737 90.542 59.8343 90.827 59.8343 91.169C59.8343 91.5363 59.9737 91.8213 60.2523 92.024C60.531 92.2267 60.8983 92.328 61.3543 92.328ZM72.5893 94C71.6013 94 70.8096 93.7593 70.2143 93.278C69.6189 92.7967 69.3213 91.9417 69.3213 90.713V86.609H67.7063V84.576H69.3213L69.6063 82.049H71.7533V84.576H74.2993V86.609H71.7533V90.732C71.7533 91.188 71.8483 91.5047 72.0383 91.682C72.2409 91.8467 72.5829 91.929 73.0643 91.929H74.2423V94H72.5893ZM79.9213 94.228C78.7433 94.228 77.8313 93.8607 77.1853 93.126C76.552 92.3913 76.2353 91.3147 76.2353 89.896V84.576H78.6483V89.668C78.6483 90.4787 78.813 91.0993 79.1423 91.53C79.4717 91.9607 79.991 92.176 80.7003 92.176C81.3717 92.176 81.9227 91.9353 82.3533 91.454C82.7967 90.9727 83.0183 90.3013 83.0183 89.44V84.576H85.4503V94H83.3033L83.1133 92.404C82.822 92.9613 82.3977 93.4047 81.8403 93.734C81.2957 94.0633 80.656 94.228 79.9213 94.228ZM87.9469 94V84.576H90.1129L90.3409 86.343C90.6829 85.735 91.1452 85.2537 91.7279 84.899C92.3232 84.5317 93.0199 84.348 93.8179 84.348V86.913H93.1339C92.6019 86.913 92.1269 86.9953 91.7089 87.16C91.2909 87.3247 90.9616 87.6097 90.7209 88.015C90.4929 88.4203 90.3789 88.984 90.3789 89.706V94H87.9469ZM99.8921 94.228C98.9421 94.228 98.0998 94.0253 97.3651 93.62C96.6305 93.2147 96.0541 92.6447 95.6361 91.91C95.2181 91.1753 95.0091 90.3267 95.0091 89.364C95.0091 88.3887 95.2118 87.521 95.6171 86.761C96.0351 86.001 96.6051 85.412 97.3271 84.994C98.0618 84.5633 98.9231 84.348 99.9111 84.348C100.836 84.348 101.653 84.5507 102.362 84.956C103.071 85.3613 103.622 85.9187 104.015 86.628C104.42 87.3247 104.623 88.1037 104.623 88.965C104.623 89.1043 104.617 89.25 104.604 89.402C104.604 89.554 104.598 89.7123 104.585 89.877H97.4221C97.4728 90.6117 97.7261 91.188 98.1821 91.606C98.6508 92.024 99.2145 92.233 99.8731 92.233C100.367 92.233 100.779 92.1253 101.108 91.91C101.45 91.682 101.703 91.3907 101.868 91.036H104.338C104.161 91.6313 103.863 92.176 103.445 92.67C103.04 93.1513 102.533 93.5313 101.925 93.81C101.33 94.0887 100.652 94.228 99.8921 94.228ZM99.9111 86.324C99.3158 86.324 98.7901 86.495 98.3341 86.837C97.8781 87.1663 97.5868 87.673 97.4601 88.357H102.153C102.115 87.7363 101.887 87.2423 101.469 86.875C101.051 86.5077 100.532 86.324 99.9111 86.324ZM111.001 94.228C110.114 94.228 109.322 94.0127 108.626 93.582C107.929 93.1513 107.378 92.5623 106.973 91.815C106.567 91.0677 106.365 90.219 106.365 89.269C106.365 88.319 106.567 87.4767 106.973 86.742C107.378 85.9947 107.929 85.412 108.626 84.994C109.322 84.5633 110.114 84.348 111.001 84.348C111.71 84.348 112.331 84.481 112.863 84.747C113.395 85.013 113.825 85.3867 114.155 85.868V80.32H116.587V94H114.421L114.155 92.651C113.851 93.069 113.445 93.4363 112.939 93.753C112.445 94.0697 111.799 94.228 111.001 94.228ZM111.514 92.1C112.299 92.1 112.939 91.8403 113.433 91.321C113.939 90.789 114.193 90.1113 114.193 89.288C114.193 88.4647 113.939 87.7933 113.433 87.274C112.939 86.742 112.299 86.476 111.514 86.476C110.741 86.476 110.101 86.7357 109.595 87.255C109.088 87.7743 108.835 88.4457 108.835 89.269C108.835 90.0923 109.088 90.77 109.595 91.302C110.101 91.834 110.741 92.1 111.514 92.1Z" fill="#191919"/>
</svg>
