<svg width="150" height="150" viewBox="0 0 150 150" fill="none" xmlns="http://www.w3.org/2000/svg">
<rect x="10" y="8" width="131" height="134" rx="20" fill="#DAD7CD"/>
<rect x="20.2977" y="20.2749" width="110.483" height="107.405" rx="10" fill="#4D4D4D"/>
<circle cx="75.5393" cy="71.8337" r="28.4622" stroke="white" stroke-width="2"/>
<path d="M90.7106 71.9005C91.3501 72.2902 91.3501 73.2186 90.7106 73.6083L68.7735 86.9773C68.1071 87.3834 67.2531 86.9038 67.2531 86.1234L67.2531 59.3854C67.2531 58.605 68.1071 58.1253 68.7735 58.5314L90.7106 71.9005Z" fill="white"/>
<ellipse cx="120.69" cy="120.252" rx="15.4918" ry="15.4918" fill="white"/>
<path d="M127.143 108.482L118.759 123.004L111.259 118.674L127.143 108.482ZM113.306 132.449L121.69 117.928L129.189 122.257L113.306 132.449Z" fill="#588157" stroke="#252422" stroke-linecap="round" stroke-linejoin="round"/>
</svg>
